<mxfile host="app.diagrams.net" modified="2024-04-13T18:13:12.920Z" agent="Mozilla/5.0 (Macintosh; Intel Mac OS X 10_15_7) AppleWebKit/537.36 (KHTML, like Gecko) Chrome/123.0.0.0 Safari/537.36" etag="zk8IX724qX6g5yZLgEKn" version="24.0.3" type="device">
  <diagram name="Page-1" id="s3yvxslhZZU8othX1LEM">
    <mxGraphModel dx="906" dy="541" grid="1" gridSize="10" guides="1" tooltips="1" connect="1" arrows="1" fold="1" page="1" pageScale="1" pageWidth="850" pageHeight="1100" math="0" shadow="0">
      <root>
        <mxCell id="0" />
        <mxCell id="1" parent="0" />
        <mxCell id="2snniVbpcHpEVfgWELba-1" value="" style="rounded=0;whiteSpace=wrap;html=1;" vertex="1" parent="1">
          <mxGeometry x="40" y="80" width="770" height="450" as="geometry" />
        </mxCell>
        <mxCell id="2snniVbpcHpEVfgWELba-2" value="" style="rounded=0;whiteSpace=wrap;html=1;" vertex="1" parent="1">
          <mxGeometry x="140" y="90" width="580" height="430" as="geometry" />
        </mxCell>
        <mxCell id="2snniVbpcHpEVfgWELba-3" value="" style="rounded=0;whiteSpace=wrap;html=1;" vertex="1" parent="1">
          <mxGeometry x="150" y="100" width="560" height="40" as="geometry" />
        </mxCell>
        <mxCell id="2snniVbpcHpEVfgWELba-4" value="" style="rounded=0;whiteSpace=wrap;html=1;" vertex="1" parent="1">
          <mxGeometry x="160" y="110" width="30" height="20" as="geometry" />
        </mxCell>
        <mxCell id="2snniVbpcHpEVfgWELba-5" value="" style="rounded=0;whiteSpace=wrap;html=1;" vertex="1" parent="1">
          <mxGeometry x="670" y="110" width="30" height="20" as="geometry" />
        </mxCell>
        <mxCell id="2snniVbpcHpEVfgWELba-6" value="" style="rounded=0;whiteSpace=wrap;html=1;" vertex="1" parent="1">
          <mxGeometry x="630" y="110" width="30" height="20" as="geometry" />
        </mxCell>
        <mxCell id="2snniVbpcHpEVfgWELba-7" value="" style="rounded=0;whiteSpace=wrap;html=1;" vertex="1" parent="1">
          <mxGeometry x="590" y="110" width="30" height="20" as="geometry" />
        </mxCell>
        <mxCell id="2snniVbpcHpEVfgWELba-12" value="" style="rounded=0;whiteSpace=wrap;html=1;" vertex="1" parent="1">
          <mxGeometry x="200" y="110" width="30" height="20" as="geometry" />
        </mxCell>
        <mxCell id="2snniVbpcHpEVfgWELba-13" value="" style="rounded=0;whiteSpace=wrap;html=1;" vertex="1" parent="1">
          <mxGeometry x="240" y="110" width="30" height="20" as="geometry" />
        </mxCell>
        <mxCell id="2snniVbpcHpEVfgWELba-14" value="" style="shape=image;verticalLabelPosition=bottom;labelBackgroundColor=default;verticalAlign=top;aspect=fixed;imageAspect=0;image=data:image/png,iVBORw0KGgoAAAANSUhEUgAAAfQAAAB+CAYAAADSiuOAAAACKWlUWHRYTUw6Y29tLmFkb2JlLnhtcAAAAAAAPD94cGFja2V0IGJlZ2luPSLvu78iIGlkPSJXNU0wTXBDZWhpSHpyZVN6TlRjemtjOWQiPz4KPHg6eG1wbWV0YSB4bWxuczp4PSJhZG9iZTpuczptZXRhLyIgeDp4bXB0az0iWE1QIENvcmUgNi4wLjAiPgogPHJkZjpSREYgeG1sbnM6cmRmPSJodHRwOi8vd3d3LnczLm9yZy8xOTk5LzAyLzIyLXJkZi1zeW50YXgtbnMjIj4KICA8cmRmOkRlc2NyaXB0aW9uIHJkZjphYm91dD0iIgogICAgeG1sbnM6dGlmZj0iaHR0cDovL25zLmFkb2JlLmNvbS90aWZmLzEuMC8iCiAgICB4bWxuczpleGlmPSJodHRwOi8vbnMuYWRvYmUuY29tL2V4aWYvMS4wLyIKICAgdGlmZjpYUmVzb2x1dGlvbj0iMTQ0LzEiCiAgIHRpZmY6WVJlc29sdXRpb249IjE0NC8xIgogICB0aWZmOlJlc29sdXRpb25Vbml0PSIyIgogICBleGlmOlBpeGVsWURpbWVuc2lvbj0iMTI2IgogICBleGlmOlBpeGVsWERpbWVuc2lvbj0iNTAwIgogICBleGlmOlVzZXJDb21tZW50PSJTY3JlZW5zaG90Ii8+CiA8L3JkZjpSREY+CjwveDp4bXBtZXRhPgo8P3hwYWNrZXQgZW5kPSJyIj8+WlTN7QAADD1pQ0NQSUNDIFByb2ZpbGUAAEiJlVcHWFPJFp5bkpBAaAEEpITeBAEpAaSE0ELvCDZCEiCUGBOCiL0sKrh2UQEbuiqi2AGxI3YWxd4XRRSUdbFgV96kgK77yvcm38z8+efMf86cO7cMABonOSJRHqoJQL6wQBwfGkgfk5pGJ3UDHP50gQtw5XAlImZsbCSAZbD/e3l3EyCy/pqjTOuf4/+1aPH4Ei4ASCzEGTwJNx/igwDgVVyRuAAAooy3mFIgkmFYgY4YBgjxQhnOUuAqGc5Q4L1ym8R4FsQtAKiocTjiLADUr0CeXsjNghrqfRA7C3kCIQAadIj98vMn8SBOh9gW2ogglukzMn7QyfqbZsaQJoeTNYQVa5EXlSCBRJTHmfp/puN/l/w86aAPa1jVssVh8bI1w7zdzp0UIcNqEPcKM6JjINaG+IOAJ7eHGKVkS8OSFPaoEVfCgjkDehA78zhBERAbQRwizIuOVPIZmYIQNsRwh6BFggJ2IsT6EC/kS4ITlDabxJPilb7Q+kwxi6nkz3PEcr8yXw+luUlMpf7rbD5bqY+pF2cnpkBMgdiyUJAcDbE6xE6S3IQIpc3o4mxW9KCNWBovi98S4ni+MDRQoY8VZopD4pX2pfmSwfVim7IF7Ggl3l+QnRimyA/WwuXI44drwa7whcykQR2+ZEzk4Fp4/KBgxdqxbr4wKUGp80FUEBivmItTRHmxSnvcnJ8XKuPNIXaTFCYo5+LJBXBDKvTxTFFBbKIiTrw4hxMeq4gHXwYiAQsEATqQwpoBJoEcIGjrbeiF/xQjIYADxCAL8IGjkhmckSIfEcI2ARSDPyHiA8nQvED5KB8UQv7rEKtoHUGmfLRQPiMXPIU4H0SAPPhfKp8lHPKWDJ5ARvAP7xxYuTDePFhl4/+eH2S/M0zIRCoZ6aBHusagJTGYGEQMI4YQ7XBD3A/3wSNhGwCrK87AvQbX8d2e8JTQTnhMuEHoINyZKJgr/inKKNAB9UOUucj4MRe4NdR0xwNxX6gOlXE93BA44m7QDxP3h57dIctSxi3LCv0n7b+t4IerobQjO5NR8jByANn255nq9uruQyqyXP+YH0WsGUP5Zg2N/Oyf9UP2ebCP+NkSW4gdwM5hp7AL2FGsAdCxE1gj1oodk+Gh3fVEvrsGvcXL48mFOoJ/+Bu8srJMSpxrnXucvyjGCvhFsmc0YE0STRULsrIL6Ez4RuDT2UKu0wi6q7OrGwCy94vi8fUmTv7eQPRav3Pz/gDA98TAwMCR71z4CQD2ecLb//B3zpYBXx2qAJw/zJWKCxUcLmsI8CmhAe80A2ACLIAtXI8r8AA+IAAEg3AQAxJBKpgAo8+G+1wMpoDpYA4oAWVgGVgNKsBGsAXsALvBftAAjoJT4Cy4BK6AG+Ae3D1d4AXoA+/AZwRBSAgVoSEGiClihTggrggD8UOCkUgkHklF0pEsRIhIkenIPKQMWYFUIJuRGmQfchg5hVxA2pE7yCOkB3mNfEIxVA3VQY1Ra3QkykCZaASaiI5Hs9DJaDE6H12CrkWr0V1oPXoKvYTeQDvQF2g/BjBVTA8zwxwxBsbCYrA0LBMTYzOxUqwcq8bqsCZ4na9hHVgv9hEn4jScjjvCHRyGJ+FcfDI+E1+MV+A78Hq8Bb+GP8L78G8EKsGI4EDwJrAJYwhZhCmEEkI5YRvhEOEMvJe6CO+IRKIe0YboCe/FVGIOcRpxMXE9cQ/xJLGd2EnsJ5FIBiQHki8phsQhFZBKSOtIu0gnSFdJXaQPKqoqpiquKiEqaSpClbkq5So7VY6rXFV5pvKZrEm2InuTY8g88lTyUvJWchP5MrmL/JmiRbGh+FISKTmUOZS1lDrKGcp9yhtVVVVzVS/VOFWB6mzVtap7Vc+rPlL9qKatZq/GUhunJlVborZd7aTaHbU3VCrVmhpATaMWUJdQa6inqQ+pH9Rp6k7qbHWe+iz1SvV69avqLzXIGlYaTI0JGsUa5RoHNC5r9GqSNa01WZoczZmalZqHNW9p9mvRtFy0YrTytRZr7dS6oNWtTdK21g7W5mnP196ifVq7k4bRLGgsGpc2j7aVdobWpUPUsdFh6+TolOns1mnT6dPV1nXTTdYt0q3UPabboYfpWeux9fL0lurt17up92mY8TDmMP6wRcPqhl0d9l5/uH6APl+/VH+P/g39TwZ0g2CDXIPlBg0GDwxxQ3vDOMMphhsMzxj2DtcZ7jOcO7x0+P7hd41QI3ujeKNpRluMWo36jU2MQ41FxuuMTxv3muiZBJjkmKwyOW7SY0oz9TMVmK4yPWH6nK5LZ9Lz6GvpLfQ+MyOzMDOp2WazNrPP5jbmSeZzzfeYP7CgWDAsMi1WWTRb9FmaWkZZTrestbxrRbZiWGVbrbE6Z/Xe2sY6xXqBdYN1t42+Ddum2KbW5r4t1dbfdrJtte11O6Idwy7Xbr3dFXvU3t0+277S/rID6uDhIHBY79A+gjDCa4RwRPWIW45qjkzHQsdax0dOek6RTnOdGpxejrQcmTZy+chzI785uzvnOW91vuei7RLuMtelyeW1q70r17XS9foo6qiQUbNGNY565ebgxnfb4HbbneYe5b7Avdn9q4enh9ijzqPH09Iz3bPK8xZDhxHLWMw470XwCvSa5XXU66O3h3eB937vv3wcfXJ9dvp0j7YZzR+9dXSnr7kvx3ezb4cf3S/db5Nfh7+ZP8e/2v9xgEUAL2BbwDOmHTOHuYv5MtA5UBx4KPA9y5s1g3UyCAsKDSoNagvWDk4Krgh+GGIekhVSG9IX6h46LfRkGCEsImx52C22MZvLrmH3hXuGzwhviVCLSIioiHgcaR8pjmyKQqPCo1ZG3Y+2ihZGN8SAGHbMypgHsTaxk2OPxBHjYuMq457Gu8RPjz+XQEuYmLAz4V1iYOLSxHtJtknSpOZkjeRxyTXJ71OCUlakdIwZOWbGmEuphqmC1MY0Ulpy2ra0/rHBY1eP7RrnPq5k3M3xNuOLxl+YYDghb8KxiRoTORMPpBPSU9J3pn/hxHCqOf0Z7IyqjD4ui7uG+4IXwFvF6+H78lfwn2X6Zq7I7M7yzVqZ1ZPtn12e3StgCSoEr3LCcjbmvM+Nyd2eO5CXkrcnXyU/Pf+wUFuYK2yZZDKpaFK7yEFUIuqY7D159eQ+cYR4mwSRjJc0FujAD/lWqa30F+mjQr/CysIPU5KnHCjSKhIWtU61n7po6rPikOLfpuHTuNOap5tNnzP90QzmjM0zkZkZM5tnWcyaP6trdujsHXMoc3Ln/D7Xee6KuW/npcxrmm88f/b8zl9Cf6ktUS8Rl9xa4LNg40J8oWBh26JRi9Yt+lbKK71Y5lxWXvZlMXfxxV9dfl3768CSzCVtSz2WblhGXCZcdnO5//IdK7RWFK/oXBm1sn4VfVXpqrerJ66+UO5WvnENZY10TcfayLWN6yzXLVv3pSK74kZlYOWeKqOqRVXv1/PWX90QsKFuo/HGso2fNgk23d4curm+2rq6fAtxS+GWp1uTt577jfFbzTbDbWXbvm4Xbu/YEb+jpcazpman0c6ltWittLZn17hdV3YH7W6sc6zbvEdvT9lesFe69/m+9H0390fsbz7AOFB30Opg1SHaodJ6pH5qfV9DdkNHY2pj++Hww81NPk2Hjjgd2X7U7GjlMd1jS49Tjs8/PnCi+ET/SdHJ3lNZpzqbJzbfOz3m9PWWuJa2MxFnzp8NOXv6HPPcifO+549e8L5w+CLjYsMlj0v1re6th353//1Qm0db/WXPy41XvK40tY9uP37V/+qpa0HXzl5nX790I/pG+82km7dvjbvVcZt3u/tO3p1Xdwvvfr43+z7hfukDzQflD40eVv9h98eeDo+OY4+CHrU+Tnh8r5Pb+eKJ5MmXrvlPqU/Ln5k+q+l27T7aE9Jz5fnY510vRC8+95b8qfVn1Uvblwf/CvirtW9MX9cr8auB14vfGLzZ/tbtbXN/bP/Dd/nvPr8v/WDwYcdHxsdzn1I+Pfs85Qvpy9qvdl+bvkV8uz+QPzAg4og58k8BDFY0MxOA19sBoKYCQIPnM8pYxflPXhDFmVWOwH/CijOivHgAUAe/3+N64dfNLQD2boXHL6ivMQ6AWCoAiV4AHTVqqA6e1eTnSlkhwnPApuivGfkZ4N8UxZnzh7h/7oFM1Q383P8LW+h8ijnDtwgAAEAASURBVHgB7b3pj1xpduZ3Ys9935NLJneyWF1VqpZaZWuk0QeNNWM0xjYM+MsA/sP8aaAPBgyM4TFsY2B7IGnkUatV6u7qKpLF4k7mxtz3zNjDv+dmvlHBYKyZkWu9LxGMyFjufe+5975ne85zQn/1V39VMD+8BLwEvAS8BLwEvAQutASiQ0NDF/oA/OS9BLwEvAS8BLwEvATMogMDA14OXgJeAl4CXgJeAl4CF1wC0b6+vgt+CH76XgJeAl4CXgJeAl4C0a6uLi8FLwEvAS8BLwEvAS+BCy6BaHt7+wU/BD99LwEvAS8BLwEvAS+BaCKR8FLwEvAS8BLwEvAS8BK44BKIMi74Ifjpewl4CXgJeAl4CXgJRCORiJeCl4CXgJeAl4CXwIWSQOa339ju//RvLfP0hdnwqFlHxwfzD7V1WKh/yELtB+8XeruscG3U9KwR6u60yNiwxfp7ra2tzS6DcxsNhUIfCMH/4SXgJeAl4CXgJXDeJSDNFTzyWbP9PbPChxxpoUyWz/nG3m5wKKHkNs8ps64D3FhI+LG1VSt0dVguHrdCNGaFUMTC3V2Bog93dZ53EXw0P6/QPxKJf8NLwEvAS8BL4LxLQM5o8MhkzLY2zHaksEtGOGy2umQWPoxCR3l+HreQnjUiYSsk4pYl7ZzXdyMxy8XaLXr7pnX+5T+3CIr9oo0TUeiFZMryG9um57MYhXzOTCc5n29s9zqZsZiF3Ilv7FdmXAzW02mhtoSF2YaPdjQqOP89LwEvAS+B40kgUOZsIpRjvc/tN7SxSvFo+fVswTKhqO1HEpba3LT0cI91FDI2Pj5u3d3dDW37PHzpRBBxUuapb7637PuVsznGVNIK25tWSDdmUITiCfIpvSjotqbmGxrut9CDm4RnhixOyMbjEZoSn/+yl4CXgJfAuZFAJpexdXTG65dP7bt/v269c2/sl7/8pVfo+e0dyz57YZnnb87mZJ2SQs9ODFoqlrJw7pp19w9bW2c3jn6MCA8evx9eAl4CXgJeAhdGAnu5rL3b3bfv93fscWrbxof6bXf3IP9+UQ7iRDx029+1wswbKzx7fDZyIOReaCLkXlDIfWXxx1xLg7PeW++y9zZv+e1bNnLjM+sfv27dfb2WIGzjh5eAl4CXgJfAxZHAZjZnj3b37Gk8atnEgHV2Ao67YGXdJ6PQM2krAFIoCJBwQcaH+MjGJr2ZXLVHqQXL7e3ZzzrHrbN/zPLK5/jhJeAl4CVwTiRQYE3KpzM4OTg6wheVocGrTpOS5lACbBFK7aeAEdoFc/U6lbKZaMiGAMR1kDvPIbtkMhlEXi9CSvVkFHrVK+RyfbCysWv/38KcZVNxm/hk16Yu1+H5o/ES8BK4BBKQMs+sblp2e9dy5IgLhJYbGaH2NgsP9luUeu2fAkYoVcjbci5t65E2mxzoDxT67t6+bW5sWi+R15+sQi+0Jyw3MWR7c4O2s7xm+f2UJQhrA6kPrqMIzwkeej6LkcNCTemBRaZHtsxi1d+pfMFyVdz2rOn3eft2b8cera7gmY9aMpMnd45Fe0bHdBZy9Pv0EvASOH0JFFif8qxb+WwGBQ26O5W2cDJnoTSKWqlG3jeipLiXweRyrL/p1Y1AoeebUujtKPQ+K6DQQ4B+c4d12mg2C4mQrC1m+W6AxNCHR8Jgh/g8HMej12cXaDh9sIWhs0VNe5aQe//QgA2g1EPSBarayjVYMXXGx30iHnq+v8cyP79vK9lte/G3/2SppW0b5YLoPDzRHTwPAh7rOCPlJ2W+yoW/nE7bIo+dsjD5HidvmfDUbhWNvlvIBZbcQpbwDCGa+zJWCE1FdTErH++Hl4CXgJfACUlAyjzNupXa2bDU6rwVltctsbhvkdWdg+oe1WRvrhux4mAGP4bccUX4baMh9wLg3jyluRlC7jmta4d12pZot0hnm+XH+ixze9RCw0PWFu+3RFefxQbxZNsvlkJ3+kA6QQ5eOwbKxNCITQ6PWCeVTzqas3E9m7+ATkShh8g/RO/cMtvdsd2ZZVvPcgHi8UazWUthTeK/26CFLYEizfB3iM8SIZTiodgiSC8RDmEAhK0nEg28++YPrfovdNKkzF9jxb7BItviWhXtn0IqeuwzHyn0vUIo8Lr1WZQLWnkkjT0U+jo1ihyCTcfidotjbe+EbQivvcA/P7wEjiMBx+OgahEBTANv6zgbPOJvFWmTca77OdbWGXhgR9yU/9kRJOA88YDPYwugMYCtAko6yyOT2rfM9jqe97wZUdDwYtLyHyn0xmqza01Nq5ke8k8LeOEiXlF5b94p9K2xQKFH4n1cJwNWwLMNDVAC3AftKkxrF+G6cfpgDXxBqC1uPT3dNtjfZ4N9fdZNe/EEtLCKvl6EcSIKXSexe3zKhtIhG93JWnJs1N4vrdjqMo/VVUsn91HgKHMuzHVCQZFkxoYjePDQ7ml0otGHYxG7zoLySWenDYchcGnh0AmUZy5l/qo9Zrud7QGisR0uYFlnCil1otQ7iSLE2X8H73dzUuMo9mCgyAvRsMXJMXX19NkwlpxyLHuA47pY/PzwEjiOBIo8DpR+BtUi8rjOYChtpkibjHPdz/LA/Dg9CThPPLcEPemTl5Z/PQO3x6Ll8b5DKQy99J7F0njhcooIuRcIuQfVPS7k3uKphnBkIhmMhHyK8P6Ohfc3LUZ1UIg1s8AanY63W6qzx/JXRy332ZTFb01diOvG6YM1TJd2eN37hkG4k2bowEnrJeze3dMTgOJaLM4T2dyJKHTlUnTz904UbPJzABlYOul3M7a98N7iKPQsig//1pL7SUJGG1wYhI9Q6GE84gxeMxh5vIGwtRMa74ePVx5KKz11RQDa8f67IJRp6+8OrMr+MRiBmGcbrG+xQ8UdKVHoXSj0hHuf6EE8FkXRt3Oy+yx+SEiT4UbSTVhvFIhUKK8VWN66GSmXaGQURFkodjpHXdjIj07yOxg+PyUU7EmKsnTbee6P7NtZyzx6aoXXz6ywvlr68am9Xp/tt1dJvL/tLbvzBwkbuRInXUq+9IJ4K6cmqBbtqLguAMSynR3LUQOdIcqZnaOk9skry6HQcyh0VRBJsYbymSAc7HZ/4rFBIpAhHoG7zgIewpaIABhzI3/oweeWqPzJYoRuwbg2QRpAjVPOsce+S6T4NdwlcyiGBAp9cGjQ2uF5j5EmTuC0JdAJF2WciEJ3B9+Jdzs1fROl12v9g8M2NUWICM9YpQAaek5LoZGrbiPkLgTm9uZG4MGHyGPn3y/ZD98+sfX1jZZ66jIO5Pn3duBhjw5YcuqajT94YD0jI4A7fqRwVYg9jBLXAkZbOgsf5vwFfAuj1PVeFKXf7JAyTy4scnOuWGhxjdREg6ExIgkF5ls4bC7Q7H5b/f2fGgq21fKruj1yeQHTodgOBXI6ozHH9fnv5+cs827J/nWi3z5v77LBwcEgYnVGU7rUu3XrQvbdrNmL11aYg+MCY64gpblF+oV1Iqy8ONeEvOXzNpwHH15atOjXzPeHGdvvfmJ718bPtce+Saj9MVHjF0SEJ3HqdI0L1X8Rx4kqdFk4fTziWPXyYsW6IyUuxKDAGcoRaQS5IqEJyQttY33uYaGm8cz3EewOJRe7KL9Vvh/Fk+1MZSx+aBAcVeBC3CuMHyKSoDz5Hgp+qLfHekZHD9vofaikQyhvKXWXQ6+2X1l1jXgv+R0s7xdvgkd4YdlCO3QKamSQtzpPCt0GCMHeumaR/LDl2smXAZbxTHmNnMg635GR2NttKcJ+mwu6Lz6kMFa1SCuqRhy6VyFHPZLBsyo49Dio4vhHqjja42325+Rv/WitBIo5cta7wuo64fQljKdZy75+Gyh0m184BLf9aPAfB5zlzreea40jVyEdevChXYxQ1vrCwjo5dxyXZR7y2GmekllNWmT8ikWGBy1EhPMsh5PHOhHT9xhJ29xv/eiAcaK1nR20VsXJvGhVSyeq0N3JUphOVk8XzDv7+/uUAQDsQDE7EpYcC0kaHl15uwpht0OhmieHnevtt+zEuKUJ1S+9ekUZ3IJNr2xYfK811mmMcoRuvJAC80teXwKhOWA9kAl0dn1Ixi8lJWUdJcxea0iZ61jrjcLmluV+/73lvoVJb2fTwkQmGhqE2gvPzk/IPUdv4UyIJjyFaVCvg5boJt/kmfIaOpW1vhQClBN5cM92trbs+5fPbJFmEaWji+usFVUjDt3rqj2WMJ4FBl1igVM9rqvi+PTw/tU93Mj1XTpX/7q6BFyOPMu6lv/17yz/w3OidijxNaJ2GP0BSl3lZy0a7nzv1XGIWlWFVO6xh14vWHr0jRnR0LZ/9guLXr/SoiM72macPIrodrBSV69cs+vXrltfV4/FcfTCKPWLNGprqBYdiRSdgGVxEOF6HcczzsZLFTqhd2oAhRKvNLaXlmwea051kPkknr1qLhVyqvL9Stuo9F6MSEE/gLwQZR+7r95YAfBD2+gEyMYPFboUueZfT6FX2kfF91g4bQ2LdREmPYAlhUyDCr3ixk7/TXlzqtlcX1+0lQgW9/a2Td78xEZjHUUj7TRnpXrcTBKPAE8nvJ08qMdtZgJiz9LCWWehq7tJrm0Sbz9SCJdtN4SxGBkHFVwHOBkitaLFLryxbpmXt2yPXGmKVFUawy+oEsHD2mSxkX+TRfm2YwwPE70aZv/DGJ+qDqk0nEeyxW+WkNkyXokWM6F7BQjaALeyFU2w7Xbb4FByXPdTYDZu37n90T1Rafutfq+YU2a+TQ0iGOqcGAJYex7rot31miWUnl1csdzTV5b/ze+s8PL1Rx55M8ft7std1jXxaLhIi+PZ2OM8B8oL+cQosa0WTVT1UQ/3A9Xnx6s+KvPYbXUbg2XzADvVRuUQ+IA4gOkY94X6X9SLgDYji0a+K3nJmNV9oIhUgmiyjNZRUq99hN4Fkq4mo0a2fxbfORWF7g5MJ02KUVb+ByF3vpBHoC4E777vnnvx7Nui9K0NA1BY3rfcJkpEoJBjKnSR26gePqZwIh5zgsWs49PPQK5/iFSXldbKhisiXgjqOAmhCy0aIATdwV6AZynzx4TUHr/asu9gyhuYWbH/5r8btdErU2cyeynz7YU3ptxj7PmiRdaQaTOD/Flp3W4zP/3guwAnjaiStR2GEsu2K7R42y//Jcxbtz74WfkfUkKq5+27f9umC//CEg/vBtUhKwBK93isUM62wiKUJtq1y6IY2tqzzs0du0OVyJ9RZtZZpZeA80geA7r7a1JbL4iUaVFTqY7QvZ2U6nQNDNhU/4B1wRDWy2stcONEyWLwLKhCRX/rHj6NUcwpy1ttYoQwdiIAXsVwdh7rot31msEjj/zjYwu/eEfIHQOfe+o4JYruvnwLRqc00iLeDI3AoON8xwB69UMY05aovPxnACnvrW9aPJltbfWRjGYQ+vuPH9v63IzZJ/dt8C//wrrv3QmuqbNQ6Kp2WsRQVrqpjXW5HVxVN+nXPhqzCPul6OxFGpXP6AkdQQAyI3/drKd74NlHTYD3yCb5dQS//vo5F8fusdDvyhUF5DZ4N5mVNcu9fGMb3z4KQvD9V69YGyf2RIYYlkTKMMpjlxKUPaxD5nJWzHn1jtF5dlr89XiNovodKNzHlP3NZGg9u0/EgehJXH3hOTenPeTJZYVLAGthT55afq7Jtr1FxftjrvJIxyBFXlGhH2x3c2PDlvsogdnbtetThPXwAiqNwOCDnKNzbNgmYg8tNj5qiffvLQrYKLKyYpuE4pOki2yfahHOQ36TtMfaJj0FqJwAE1Jt6Dwq3PqehfVb5vAGA3v8yoQNjw5bHwv8ACknKezyh1PgSpc5QGu1fTTyftHz1jEAiiX0gCLjGnLlVoeRElGVZhaWOLfNGWhS6DkUeh6FTjGx5YjuFTB2QizOIRldQi0TeQjxHAEIJa7y0xiOXyC7QAXDq8eWffzEQrSZDs03d726+1HnUg1FxEEuD3MBxfQEo2CO93dwTrYBz+7EuyxLpEVrrrxNrcFxyrFiyEWKvdLIUX2UxcDIl1UfJfHwMwr+cN0kuN83uZ5inL8O9t9QFZLOK33L81x72YUFy7KfTYzGoDLoxpR18Po0PXUpcaWZ1oEUJIgS9GLQtnOtCNXeRor1IqHb3Xk8nSvZ7e2Iz7KSlJst3LsVkBgsjPXbD/8zHOrzsy1BvztPfYWSkEf/y/9q7a9e2x/8D/+9jfc+OOKMa/9MdIliWNpZH7atuXdEGzJnypxXe7asudy4CtW5XOtTFMmvdra5GfvsymcP7bNf/Nwmp2khyzk6C4s2XIhYrIAyTZPz2tiCaAPF3sxwofFmflPpu4ceCMjOg0/Ltvv2zVv7d//2ryz+6JH9m//x31jf55UVutu0w54kCOMrQtXX3WMT4xOWZOEW7kTKNYcxE0ruWdveuvXPzNvQ71+QyiEH28AYHx+3f/XLf2V3798FtAp4VQBWHtpv6esGNtXUV5znXazyWFuvzHDGsUm5GEqrmVHAOM6juDIosRzRDsILASFKCHxOlBBvCANG4NLIGAxnGEvR7tNZBh2/QObJ9xZ5/thCeKnh9e1mDi34rrsf3+CJqzuYGooI87BG6kXplAgpnSFaO49NTvA8hjc+CDaoJ1BWOq8Kt+t8VwsnV6s+2uGe32F/K6TYVsABJQDy9VGadoX692b4Qtx6u7e6Ztv/93+0pFKP//V/haHVdqqeutISimTI+JG8JklzKcx+kcfpXMnHlJCstqAlqSxrmIgSmaTFf3gaLGr75KH2sBKP4+E6T72dUGRhedn24hFb+/KBtQ91WWffEGxHrT3JQndGrwEIwWPbfbfI/Mll4v3Igq/FnNfGIiV0c/BooUfvLH7ngZejnRXKCxQ6Sl3hqVkU1RKeTdfYiN0EvCWmPJEw5HgfX+CYZ7v5n4egpIy2wyegh7wz5puirrTcmzwyerfBKUm5ppCR5Fk6DnoD5O05C+LXeNldXM+//Ne/LP1KxddacOUdR8gHg7e1bhZqYU0yPHRsBRYkjXBmz6J7y2BUuDZezqHQK26u+Ka2Kw+kB8UmZf7Z558Fn5F5DkozI4AvZZiVR1sareJwO/rIE5dyhvkuiwKX5517T4WHjA/wJEGZngh0AsrSY0ZKmIAko0cpw5kUeh6FHh4dChR6nghIZHzECpCHgMS1MPIN93UHnrs7hlY8O8888/y1ZQDC5vDMwzNvSJVwvE0M3Z+6F9/jVb4iXfIDa8ajnX1bICiT7GmHmW3QOjmvirBIOV25OmmTE5M2RF21FLqupdLcuTvftZDckmGS6qMt8BwbRIZWiZqsA9LcJP2SXFq1XTzbLap0FGMQn4aAxsIm1VqP3Xor0N8+Rq4QEtujI0H0IHb7pkV1Pk5hyDASAHST1OcQ+x8B3yKFrhRrLZmcwtSOvIvTX32PPNUff6hwuDzozRvTtv2//1+2+uJVSzxcV5++S35+7bt/sHRb2qY//xPrG7v2485b8Mox6aUUv4JJb46b8Nn3T23u7VpN5rwRLGuhm4d5tJIL31n8zgMvRzurYUGg7AnrSdnLA+i+Mm63yX3du33LxoeHif7unXqO1Z0KkduoK1QYAyM/Mmopyn9Wl1MYSh+CDVuF3nX7LX92cixHEYu4Qrm6J4Qa5UF9iNAo38rHf7sIVQdyF9Ykw4Ku8HcG40GjgJ7MpRq/lbWoK4eqsKs8NTfEsxDHOOrgelS0RSmU0iFDoBmU+0eeOGFWMd/l1wCCodwLSULthyH3U2E420J1gFkpLM0G1SI5sANJws7hgSELXZ0yYRwSn9/Hc//wuEtlcJTXRc8cZZ797lvqy9m/KH2bHC5H/h1h9d9yv73BuN5CiXaMDNnNLz61aeY/JQVO6kSKScRXMsICrxwDTeevNE/tzre4NyqNwCAK8b+yOASTEhg9/YNZSooBoXI951VuR318YWXZ3s/O2hpofVUNCWjcyPpU7qlnQfeLabP91BT6h93V+oaGArnJoPUKvdIVcULvKbetcHg7C1CSms0ki8Ie5DO4ZTUtw3rTcfXpMUJZbwGsZLjZB8ZvW7x3iJsCkA03RCuGY9LrHC9Y36dp6+YCUhQiw82XJpcfOsxdhXAvhG7eZxEPETUI8R3dW1HusR55Z7rjmhjOEy/PvTkPvBraOcP8lIOLy7Pj5u8l9ysPQOjnqxMThIK78Q7PDjyiHKgAUHk8zhy5OJV7vSOKs0LzHKHAHXuf4iylPQSUQRwhF9jD72t5FOUiFopYyNgtFLVyl/VQxLv4iVTi2gxdnOICm6Ess3haogqWgtRCW2sUI1SHX8oCJtFv9KyR5UJJbUkJqRtC5cU5+OLhf/qtAFFxFvwYxy+DQQ9Vn6hUR8qgi3PabA6x2AQEApTC1rZll5aDuurc3PsDT/xQoYvpzI0mL2H3s+aedf/wIHzCgyjcYRWg9i0JynMPLSnsD8AwB+B2erIlHPZFNLty5oTZ5ZkHyrzk+Bs5EHe9vcSI+y14gqeE12faoVod6LFhztPk9Wv24IvPuB9R6JOT1ke1jobzwKtFXFRnrfOtCFClob4USnbkANWp5FjGZOmQUt8jBL9FFdJaV4ftc92EUPoR1rA4nrxwEbXuq3JPPQnyff7+lO22h61/ZDwoXy7dX6teu3VQ617QXY1qCFG8DhHZaIcvJSK8RbDStmqPp7edxs3605tTw3uK4Rn2/vmfmUGgv/k3f2f7M7MNWYb1dhDeTVvsNeHv9gVbuTcHNSzhmIFhwrqtDb0XmfSoeRwfnbSVlVXbIT+dZ6EWc55QzEIWp3hWs5o4YeQ9wvTbhCgza+RpMTyaGc6DLM+9OQ+8Gtq5q7f3gxycFnot+goB9/KZy/V2qZEBCuq0RwD0IWqRh6xi77NPbC1csKeZHXuZTwYocC08GqL8Le0hMI5R9Ocs5p9wLI14FO64pMz/dn3LHnOulLushyLOkuNPslCI70BMVFenrmKopY4c0ZCCV/jULbAZUh3hcDeGBeFC9tXokBeixV7b6usF9SxvletOCl8KvtlR7LsNbW3uCeDE12+CuuqA6UyeONfxUTzTZufR7PeDORE5yG6sWP7ZY8vfmGwJh30RzQ4ATjlzhdmPcvzuevstFQ0v4G9P9XTayK1pu3r7pt29c9cmUOI9VCno/lPI3Q3ngVeLuOj8B+Fl94MKzzJ6pNhVgVRehZQiyrJJ+iQGEFNrQhJ8R/Y2HeBevbUVyvDSi8sN3VfOU19ZX7Hv/ub/tPadefvyz39p7dMflg9XmN6R3nLrYFDCR8RR5WqjVHbo0YHjpjtIjtNFHBdaoUch4OgmB5jFU9pbXjK61gaI3yCMd4yzEaU7XDfI7b3ZVdv/7nvbJofe/yn+XIsVumPSa2e7vSiWXazvXRa9NOCqPDfQLiHaXhS6wqvB4OYx0gtt27RKrBImq3TY5bm3Fyi4Z1ini3hpKRaBAqHHKMCrDrojVUI7C41dmoNT97nSkJS8PCkFPc5iBIoJJRTFW4mhLNvwKHqz+6BWaRSxthooEjcvBaldD4H0jvLsyrPq9m38FpZnLmX+LTLM01kqDJpY8guqONhS4PmWoIilGrXMSj7Kb169ejVQmkdFjQf7KTn/IfadgfmQfobspb6HzpeCIS9E3kgcwF1w/sBBHGUUc8RLK5aenbcstKV5FHphZqaYE2/GE3ceVDmmo0o344+mHBhuGMANY04w0AoZ8vh4znkgCLl1GNsgKldI+TjMZvL4s89eHKDZAcA1mzN3nvm3VHB8Df6CVj1BFGrk+qTd++Q++Id7dufOHXLkpAxknB0aYnrWcB74USMuHwm27A1VH7FQBSH9biJP++TEdzjmJN58jrUrRWpHFRj11mPnqcdIJew9fWb7pIHW735pPUMTgZGp9aaVQ9dVaf25IlMCnF7E7mrlcmmtpMq3fsJ/u9xi/vY05Bt/armhPgv/6jdmswvH2rOzGBMgptf/06+J0qFgx66YQQt4EsMdR7Gcj5tEzHnO83XgrijxwTZ0e+dmyjoyH4a/as2rPPe2yIoXhlp0ENDMnQd3bRxMgrrG6cavhHbW/PTQQiFlosUjSqhOlLga5yXn5OR4k9DjwMggEY8VW1xcxEv/MF/pULzdc0t27ZsfrH/+PUAeoh2FgxB2LVnqM4XZ5ZlLmf/Rn/6x3WB/kl8CL1xDHnQlFLHkp3ymlGc3xsdZD509Lf3H9UiKOeLvf6D087nlFVon7SGP/Ch11c6DKsd07Dao0V23xqNiToQ8j/0T5WRvMVBG3xyZ2SxMFEfbsd98fyQ0u/PMpcwfw7UQmxgNrrd7Dx+AYL9CE5Gh4Dpy96NKrhRpcakSvX+ciEu969Pdbw7bIYpiKfQdFPluL0buk7Gm1mMgSzaWghDn/b5tvFuw+PCCqRKj1R0spdAvW/25O1cXWqG73GLXCKF3jiQNgCO8Dn8wzFq6KUNNhqSdUJzFKMsyhXGQo7548cZvDOyRnUR9ujsO7V95USnNUuY8cb9nQQRHoL3t2IBdiXrjCFGEasN5OI4R7A2Ws+pTn2MkKPdWoNzsGg1pbt+5aQ8/eYDHeOWDrnEu90bxD+7KQb96qHVQeKgAFtUwCi2KF6x5asRE4ws4JkP5SksGiu8oXdycHLWgqaZ6FANsaIB+AFXqmGN9M9a5AIHGxrZF9pn7YU662jEU5XqYe5NnLmX+xZdffCA/9/uiHFlYS4fmqcWwWdR46TY+eA0wKgTaWY9CjRKv4LpGtvLD5cVqaI76d5QhZr7c8upBX4JvvrMswM5m2r06eTaK6UhhRAp5L48tyrXnrr/yue9jaApzkkfO6IegXnqRa7aT89YG/kGgxFp101o3Ilo71ug9UcJsJv6AdkrBYkQGaw0Xsci9nrPwqzmLNFln7iJqQc5cYXY8cynzqU/u2MPPfxZUJgQU2fCNy+hXhCxInRDpk/JrU639KQx3v7ldtWHQai66/xI4VwVex2aWiEwcplqIhNQaCdaXEYDCa+v7Nv/yre0ODlkPeKlWK/TLWH/u5HqhFbo7CAHWlOPev3kTp2DTMh0smFjGwU3pvnSEZ+epn1Z9ernF63JWmRdvbPf3zyz/+0cWW3p/yJJXvTbXeTiOEewpnlJQnwqpiXJvU6DTHz58aFevXSXUr3IWhYx/zJm63FuEvseF7C77y1pc+dkgpIsSQEEFj0NFEMHAyGzvWY7FthWjVV3c5J0I9KMa7kojymIYRSmLta8Rxj4nV5d7U5hdnrkW11L5uX0V5Xho+Lj3teAJRd5OiLslmAMMT5V/BSVgvK4W3nbXcwAMDFH25iZ0xGcp8+Tf/Tooxcq/fRuUfDaTI3bybBTT0QNzV5wuiUGEA6UVrxKK1VUozEkezMk8Bv4zUlXb62uWQLFM7CbtBldyQ3XTh7wCjtkshjKd/G9/iUK/W1NixYjFN+AIxIvQ5HARNQHglDMX2FORICnzadY4d725CJ7kofvRhdyb3F3Lvi4Fr7koOtWVI+y+RUrr5l3AhrjeM+AHSGvUGu763MEBefXsmbWBFZieng4M81q/a/azy1h/7mRwKRR60MYU6zQCB2+BvFIGsoDwAohVSsKCBaaOZeiEUf7sPPXTqk93Fq9DC+ep7ywAgAu9eGu55y8tOzN7oMyJQFQazrJ3daq/p370d3jlSx0JWMlGbezKFULsd+zuvbsHuTcsYCmdchSsy72FtiEugYEsTAVBDNKWSK66JxegYStN6ijvtaiLmxY4pRGqoXhD5M0igPrCwhFs115sdBjyKOVN7hGykzqMoagVZm8/9JS0v9Lh5Fi+f5WDHQVFXrrt0teq/w1a8KKsapGwuOtZXN0ZFk0xdbl0Tun26r1WxEg15JnHTy39299b7odnxVx5rd+We+QKKc8DDnzNszAd7/Gq9zvw7JCPlEIn3mYppqObc+UUehcKPVFFobs5qIogDwZFdLlZHlKuexieG0SSZvlSSiVf1E3La5cykXw+GAJYlDKbqWb5ykTwlVqeep6wc5A7f/Y8QM5/sM0G/lAp2hPmLjR7AIBTzpwwuzgDSj1zgeD0kBI9D0MREz1c6jCnElKtx3tcawAOS6sbKs3XXZ9hrssVqpciMLftiO9eUUuMhWoRmUrbqvWeMjdK32S5zgbgJbgM9efueC+FQncH4+q7s6JHv82is8eZa8AydL+v9nxa9elu/w4tnMYzz3z9jeWDUKYY5QirHvIyu++WPjvL3tWpzqFfMli5dyhr+eLzL+wG1v0wNav9lGgoh+s8yHIUrMu9qVY4+WaVBfv5AQObqDpPYbSqi5uLeLiufuVTz7PQZDBqct29ZiuLR/ZYnaekEHrpcHIsUxNB2FhzO6sh8qJ1qD1zPNK8bnZIme/+h7+xDGF2oyTLNjGG5M3WGeUeubjkZ7NJ21YTFTAdfZPj9vA2vAYYngIPKtRaiumQzMIocRlOMuJ1/dYaMlYmJiaC9rNpgKB5rt8I5zyFcv9+dsZeUk53jWMZx6CoVeXgPMckZXjL/9v/YTsA/2p66tSYB6kHrT1HqDd3/bnfUuaoiJoAcMqZl3vmZ1VVUkvmpZ+JpEd1/SoFDKoHABw2MvKsO+mlXQsNLNgubHQyzGS0tEqhuzkIlNxDSu4y1J+7Y7pUCt3Vd0fptxt6sG1piCuyUBMW8CiO053N1ae3syAsvHgJMrzDdibutLw+3Xnm6sCUefbKMiDsM+rCVMczd2hYV6f6PfXXr/F2lCufunHd7t2/j0L/3K5cuYo32U6OjRwX4eZ6dccZcmD5fYhMluEKpwkLBd7uujmRZ+fBrW+t2lyUmgUYqUan7tnIFfLNIPCZdVP7dRGPaj/KskjkiOzkBGYLf+hdV/uN3pdCEdOa0OzaRxAJ4O/zAHSrNW/3WQ6PVEj/rHLgKD2VJTUyXG448xxDUyQpgOACI7NKxMhtszxyVKyyoKdBis6GCUquhmFtu4rheffuXa7TA4XuPE/l+KW8taCH5AUeyrzRBV48BDpOEfKodfPy8kqxbnqH6MqeKEzVoInPKw3nORry2iVStkOkZh7KWBEGlWJq3P2bowY/v75a1yMt35eT0yzgslkMkP3eroPSNLxcAeBcJOi8eeblx+H+DrjyIemJTkK3S4qJm+bA8ENutUaYCEUb5yNNZHAdWliV7iqK6Dz/Wr9t5DPitkGpaYbugt0YHQNcf+2shxe5/twd96VS6O6gnGVoeLMZqAVzS1wQLejO1gZwanwGQ6F71bbv0VxgcLil9enOM5cyz/7t31qBBTOsNqt1PHOHhnV1qrvkhMXkNk2u/Oc//9Ju3Lhx0A4QpSPl4zzKwOqtVXeMRxTCe9XjOB6sOy/1np0H9wgP6D/KgHg5b3/xLymHGxyxfkKy52VUY1o7L/NrdB5S48qiaHltRKW73HD6d49oObxUN2Lk5lEeOSqvspikUc3gEMDW/oPIkSIdukbdcJEkeehRWAEThNv1nUYXeIVsVSKY5JEGTxGlVE9GbRLvPSTa2TczZhgoQTtjt9MKz85Tr4apcfdvWo1NqhgHFTZbfMvJSQBWYV5kIKrOXKVpeu3u2/PumRcPyL1QeZuaFukhal/SGLWG8A/DRG02cEyW6NcxQzRF0RrxdrRiuCqVjTAASZyzIdIWbYr8sPHaMZ9W7P1kt3EpFbqzDGO3pyz2s08AamPtvn3JxXQ8JrkopWJdhBb3Zlds9dvv6WKUaEl9epFRammFGt4Zy/0ecosnB3W8lS4w58k6dPBjrFmVtlAwZFnIVQYmx+wGpBP3sOzv452PjdGDWzlClLkWxUYt/DAerPpy7wEoWtletp29Lbp77VkMC7oXi1lUqhVzj3Wu2fL5u25RWtAEOHtKXvVbGo70U4IjNS4QWXkeus4uTvTjwENP/Mi0FpBz1An/nuiEjrhxeebi3xcTWC0v3XGyZxbew3j2tJgzDzXomb9Akao733eZDyNHd+/e/qDKIpEg4qHrlGsrCK9zfWk4LEIMxRClJEoYBBmjzSh0nTNFpLKJDIoBIh3qptXkZp8QfAyDNQZRkxgaa2FunKce537bo5HTLuyJ72lMFMdbD1JYYHfUIU6PAkZEs0ORNrU+Vbe0oMEKxFmj5HiHeT645toCpeYiF81u/8y+r+iXvHM9XOOiGpMRf4BKDvNcm+v0PnhPp0GB44473LqjdUZkWhlKPUSONQDPRjdKXYZief+C4+7ztH9/KRW6E2KEMF7nX/5zPOluW/x3tEeFc7hWrsz9rt5zHnRv6m9/ZXnKhFpRn15klMIjj/79txb6gdwbYaZqw3myDh0sNLvqVMMc7+df/SHAt/t2heYvI4AExeQmZa66cVenqkYqpR5Qtf24SMc+ztLvd5bsBUxOW0Q7elHqD9nGFA1ajiLP8vm7blGOsS6NF6bc/zg51WuEYVWLKhaz8zYCIwnlIwWk1xdtqIpCoegcBpqrqKh0DI6TPfMSwpjnh6VpDeSGnccpZa7ufGroUxo50iJdWmXhPPFqmA59rpC7lJvC7o0OfVdKUNd8gfC7SJvEsheE4jn2fBg8wwKeY5JYxUwDaGzmoJ4KW4TG3z1/YUmMA3nRPfDg5zAS8jy0n2ZHNfS1jreD1JCOQa8v+1CKU/JVyaGqFBRyFwbiuMOtO+VVKv2kMwaGqelnrZQheZHHpVboYfKu4VudILSTFqIMoqCLggsESqNjnTOhMBPkyZR7PU59ustJftAf+QnldlXqVp2F+Z7j+F4oWBaUgPENFHvbSK9N3L5hn6hOFRR7ACrC6tQCoIs0QWmfQlbN1Km6SEc0Q6Rj+RMLEwbMxtstQ/OTPLlIVq0jyVHHoejCMhb4c7bxsgzd3I/VLHTzHVIG4j3XgnweFaZyu8q7nVXuzXnOgUfIuWl2SIlLqUm51VLoQrWrdDLz/XNafs4brbdq7urH6zRjAmjKM5cyjx1253v46acHkaNRiEdKPHLVMB+HS77apJRr16OaR59Lw8kP8CwDRqYRNHaAqUHhpLn/Xr14buv9UDdjdPYQUi7g/emBQKtNp+r75ejrYTz/BIZsoNBR5kGaAcP8wg1kH2L90aPA63ojyjXRqXULOW7QYjXSKoXOtS6yIvWsEM21mDFVBSNsQpsMPiI/F31cwKujeZHHCVsN/uVfWAYrLP7X/8mMkojjjHq5tEa37XKSjfZHdhamlPl/oJ3hS0LspYxvN2iWcp18+QAIYXkjpZa9lLku2KNYoDIOvvrqK7s1NW3vv4TCkrDrxNe/tT4Y1iSLo448ijydgDUND6cSulnRBQ1Z6JrDeQs16sjlL+lxdCnw4yMO5zlnF0DoH5FEqZFdF+h9nfs9zUV4RHhd71jddaoWn+oKJoCmPHO12v3FL35ht27dDCJH5R65lNdJMptVO1YXiWoUjV28/zm+t3jobSD0v/zyy4MccbWdNPG+Q1/3cs3rte5jKXNd/81EJprY5cl+FYfiKFicFBUYuvf5L6hUOO4kBToUQ9waCaZ2gHByGlRFcZnGT0KhxwCUdOPtpZUvnCdHnSI83QImOVefvkvIdYlcfQzEZLeUKeGxWqOcYStHWVqt/sgO/VpaXw7Jpm33dFGKNmW37kMU8+lDuwZRTGmdqpibtAi4xaCah1JrrvpM29CjH9am3u42PJNd6376LOjLXvpbN0+9V4uJK8hFapFCE4aIcHUMD3AMB+CfUsUtr1yPFJ6T65hWur/Tfu3mPYxKu828EuRfe9/NWrit03KQ9mRO2cKXZ/5BX/Etok8NlI81KjeH2s4LODY7S1h6ge3Xj27pOpAnNEvoeRbvfK+73+5NT9v9Bw/s5s0bNnbomYsLXM1EOokktbIuv9Hjc98rRqIaRGO7XHoUhsQtjNrdd3O2s75pqSGuU/Lgxx0yuntgo+uFJ6ENrzaGVy4g5lHv3+PO56x+r3TQPj0TdokQJTGejluP7hjiNkC3d1LjLjZJUTFfpvGTUOguhxaaHLHtP35ouXiuJUxyrj59k4tt7uuvDT/G7uPJJq7UVujNMmy5XGR5ffmNWzfsq//iK0p9Dho0COAhxjKHhpVXLute+fNWWPZhuM5jdDGDFg76149LfNw8dYN8wr6HaRhSaTgPp8hYxk0lRa5HaW5fylxzPy85ajdv+qbZBG5qZGXThv/uVxb55pGlkXsWWZ/mOAi5J3/sKw747Ch1z9Xm7FDbGbX03d1qGNXuPKFFFLoW0R4M6vv3AGjy6EZJOc9cyryXhbWda+UokaNq8z7y+02iscMA3+LrkNcsbdru8pptD28io0zdCEa9+YnWthuAVo+8coC3SkMocnFhBzIpbFM+rAevmx2BYqdk8Lj16A6jsBWF2GlgIFhvvEJv9mycg++7HFocQpU4yi+DZd0KJjlXnx4lNLT14pWlOtstqdaYeOoiuVFdvEbR0zlkfsvi3TbCsFWvvvzBJw+CXKQoXKUIdXFqYWwUxd7sqRF2IDpHeJemJuEKIV7HcFVg8Zns6LYhwEaV6v+dh9PLYt8HKGkfXvoOFq12ULAC7rnFPQi/Ev0QIEiGyVkPN2+Za8OaDB664aFrqPRLj7MazWds689U1RepHVr1bhOkTENqVAfV7rZY9IRQbfKEhgE3ql/AONz6wXVa4plLmZ+b3CX3a9AbHSrfAhzqgG3cIVV8jtJEqRulngL1vkNYeIPWxj146Amu5QLGaLND/PpqLNPNNd9OGVUH93QX8gnYDs/B9d/s8bjvq7+AcBh5wJGhBrAeWfAHqvHnF7QEjgTAzTRROj10/Rw1UqFU0BL734y02xStUtWlroM1R1UU5xGj4+TXzPNPwkN3AjkpJrlODIRpGqcUZucs9/a5bfdBMjI+ZYmuvmDXztNJC1gk5jdRZTbAsNVIffkAF6ZbJBUWV7elRlHsTi4NP2/sWeT3b+CUf2OhjQ87mGkbjuGqgCL/w1DccjFulhr1/6LcFLf2zhYUt4SPRXgStGqFX17DhdylzJ2SDz7w/52KBNTkKJleJ4oP9W8+3XBjVucJ7VOGdmV60q6T7lJ4U9dpGx7nufPMnTQxhpvJ9bp6aeCxtru5amubawCt+q2dMHkeL7tZI8ttT41l9Folet2kcsT7f5Gvfzk0Oe5zPSK8rmfqFCM8yDVJ2rAHwz9LXb8eR6kecKe3WH+Ob9AFbmcYhd4FIO7CR0DcAfL8k1Lo5Uxy6g6WpdyrQGgwyD1ysR1lxPldfC9n6fcrtvMIdjcs/XAEfnDjmc/yK+sWKPNHT5tifnN9kH8g958ExNFLffltFscHlKUF9eWHuUjd7GIuCzxzwu6t7rbk6uQzy4sWercQoPBDJblalzt3DFfx9hjkOz0sjijmLRC/GDyVhrpe3UBNrMLotwsjlNqdXrsODoAQrR/nQAIKlW7u8IApsIm6aucJ7ULacYPyyanpa4DgyAcTRu4k2qKc+bnyzA9FHVK9tFgD9WiAOVBo7A4qMPaygLdWlq1rY83GaRIV7e60DDXqzSp0tz3MAbzR/QAIFmE75yaCcdRLUusqfSUAwxDGqo8xcBGeFbIMedbSwJhRRQbbqVWNUW16rurC1Z9nkWkvIfcRuOblAF30CEjpcf+kFLo78CKqNUZHprWVIBzUCIOR+3215wwMUVu/+hbKRxRY5ygtUCGzIEwdeo1X+/e/tgKI2GaY31wf5OxQv9384lO7Q2nNvdu37CoMV0KAu1ykQtIHuciOE7HkXZ18ev6lhbdXPsqluty5Y7gaZuGOUlkQkUJPE7pMQatZYTgMwhtu1t+8fm07HOftu7dtvMJ3/VunL4EwddmJxX0LL3INq0a7weE8oa14yAZGh2xyfAxjk9Kgw5x5x3nJmTd4PPW+liQUvEApZ4Kubg8e0gUO9HROxCj1fljlc6G71VCml0cr6q+r7ObU3lbaTZG6fB3GSzchF+FZg8s+2t4ZGIARUhBHHa7qwtWfC9kuvI4It4boZHfRIyClcjm6lEq3csFeO1RrLDVluQWY5EDiqkVinn7HAj4pV3qUEcLTjBA6TkdQTmPf0it6zbp4Lz4zY/b997AkLNQMN7mcufPMXR/kK7eni/XlU5OTAbORwtBivmrHmxD4TYvkSVny4sIPIgzPX1N/v/lRLtXlzp/hqRTwTrqoN7apSboZdVpodREjgN70aipTVrfuMAibqm+nvnmHvvZJyqKOi2Y9yrlr5W+cR6DnWkO5QkU39FxrHHwPEpgqX1PuVSHaTrzFWtUFbh9Bne9h/TyUOO7tj55DRLAiqzt0LMNL53WV3X/0uyAHyvnOQt/ZR6hdBEfyhBRBClrGnnI1wEcTbPEbGa7fffLDO4AScyCoQxgvIVJhysfXYp4rn0YQcscQ2Gb9meee24LrItNEZKR8e2f9dzGyt73O9bP30bpRbX4uwrMJ1/8YuKcALAs+6KhD91hp/bm6+ImPQ4/Ldj3+JBW6uzAi0KS2/bNfWKotautzM5alLOcozGduew4FvUdTgc2/+TvL4JFIacUhoAgIbdwXqzy7nLnzzGMTo0Ef5Ps/e2gT1+G7HhwK8o9S5vLKO8mZH9SXt52IZ16cZoO581cC9FBvPHrvpuXuXgf1D9ANLv0YkYtaufQYHkkfhoJRT52l/Oe4aNbivM/ohfMIRJ5Tawj4o7rYnTrf2yNMuQytqFo+VhoCUon7+jrkLbWqC9xvE4CAhiMwcfFo43XVoZD7MdDJrl/8wNCwDUJfqqjSRc4FV5XT4QcKBwuRnY8Tsp+8bqElCHhm3pCuqE3E47brIlZxzuMKRkKSdUP0pxd1FCN7C28sApVzjSvtg0N0EZ6deJcNTYzZ5MRkUHr7wZea+MPl5C9z/bkTx09aoYdAVIurPIoHGQb9HsIqDuEhkrxy8mnq2aGg9fv9mdngtyHy29BU1dxONc986hPqy8X8Ro32SdSX15wUHxYt7AZz53ug++/SaOM6BDfR8RHChSB+CW2FUOi1cukJFNYgPNpJ+lWvzs9b5+KiTcC81R1Tlv38DOd5q3HGEghwnbdKY49FOAjv4WmpfrgaQl8o3kUBf0jdxgGMVfueU+hJlsQEnkp5+DHLfvq4xkJ46SAJK03pg/eieOWdeOghpp/Gq5QBJUXUqlGMAECF2gEwTkxcAmy2GtvRqvm2ajviSlB0KcOxFgjn2vhS0NSoHrOe238xYsX56SDSp8Yx6e2dgIdBhlArSk/dvk7jucDc1Rc+94z2y6yx9YbD4iyAaVrLZYK0xRDRnTHSd/KkxbN+FDS6y8lf5vpzJ9uftEJ3QmiDQW7kT//UMp09Fv2HfzCbPVDG7vNmn52nrt/pdb1RzTOXMp++efOjPsjyyrX4t6q+vNr8ihZ2g7lzhVRv37rN41bQ7CC8lyaXPmaRLfLoNXLpWsjE3byEt/rqFe0pIZpROEx19edpOM9b3Pl/Df2pOOgrjUDxs7jHYD7rJ5/aRiOXSkMlOULxximdUVixAwOz0pBj3kmJVD8Rn4PvfchzMJgt2N1kwcaJbnQvkN5psM1tCnmLiUsP9Q3/aKBEmkF9u983HAFwP7gkz1Lo6i+fVlOwYSpcRges8Kz5ULGLWOVnFyxJv/bt65xXkO6JyMWiJg2vbwV8H/ab7wMir3qnuRyL03GY6x4iFScgpVD/4vJvdric/GWuP3cyqbzSuE9/Is9RWJl68ILTWNdZSs/yKKBmcl/lYip66uUflP3drGd+UvXlZdMq/lkvd675l3aHGhwdsSuT1BvLu0YZxyIodELwEWp688tzoKWLm/7gReCZoNB3qW1/9fS57QOme3jzFh7O+YLHSVE7Dvpn4AHewAfdT8tP1c6L66DUe9Cyo37pMRS6FHulIZYCqXB5r5UUdflvxPhX6Xt95Lcnd9LWT9vZ0NZKwwpdXvneoYeeJepQPppFfbvfy4gdAcS0Szg/B+lSqyMAbj+tfhZRT4FcuOqlrYI8yvcnrICiJ3rI6CqG3EFRR0eJTFGVkkMRF5Y4y6oKaTAK0oFhcIVzmqS6YPfdO1uZGCcyo7axF0OhOybM3NNXFn7xrmpvCidPF/kSE6bIs57jnUco1xtGkauMVeueeNfVZa9aFMttq9JzMSd/ievP3XF7hY4kwtwssUF4w69MWOHmbfKGlFjMNJ77csJs9rlZz1wXtmp5T23UyZ07y3cH5qWhiUG7dmPKBoYGAmXe3dVNnr9A72ms6j0WyGeVlZqOxUU0Vnb3beu7HywT77AUEZPzOlw/9AT5vZ9/+XO7cvVKQOpTvtgoRCpEbfn75celz0UKVO97UZRkpe+10Te6sL9NdeAahEY0iynfwSn/7eqpozAL7tB6t2oE4JTnVW93BdGL0hY1xyPM63qxNXf9C9+gCIobERRPGwatUnjJsXHLLmJkNdAH3P3e5dLVRGTl+TOb7euy/pFB6wYgdhFGkQnzN78LgMH15uwiX477f6Y9biO3pu3WnVtBpE73haOvPkraweXkN7gxLmv9uZOxV+hIIsQFExGx+MiQ5fHUjbBZK+rTnZDLn8+7Z14vd+4s6nW8mAWAU9vdHTY2OWFXqTnuoVGFPIlOLOoOcqgRwHuFtVXLkUcV4UwltLuLaHSgmKLQjGYAx20t0ap1ayu4kc8bkEoLjMLoHVwvdx/ctbt37tbMlasrm0oMSz348mtCf+tzhRTrfo9cueagqEDwO8oCI1u8XsQThGWsVSMfDVmuKxo8QrxudBT7WYOLdwo9VSU90eg2T/J7jskxB6o8v75K2SmYD67resN5fmt46j2UajpGwxCGl2rRw3RLy9GQBkJyy1HlUqC2vJHhculRIoa7RAyNKE/m3i1L4XSUMlA2sq3T/I7rHhl05vv2cZA/N0U76gxFvdQK+gUpoEUAnoWBPpuCb0MlrEq96ToXO1yzDHFunXL15xnujS6AmSLjEqA4BmOh7svLNLxCLzmbJ1WfXrKL4OV598zr5c6dRT2v5htZmN7i0LyWoFGdRa2bJtSdtwxeewp8Qj3mOOfZ7VP+tjw3Z7MAC+X9njeF7s6nFpqAbpcIj1Ou7rPSZ8cXEDlUwKWflb4W6CdKL3g91xqShzwWt8DlABylkxnaoAIcIi/fqpHH20+N0i53lCqKJjx/h4lodT/rVh1X+XYck2PTnPWkXZZzaXOen9Ihpd27XBVNhPbGyRUqOFaWy3dd8+96DJQ1f3wGHxa7R37zneXfvj2ISpQQUFWb0ibUsI+gz1UraHWPvDZ1zR4+fBj0mD8OyZRbp1z9ue6XHtJ5vYTx1S71qDn5asdxHt73Cr3kLLj69GjyuoU/uQeZBs0ufiD31aBlXbKpii8divMlFvtvySu7OvNqaPbTzpm7SRfRqVDUhgkVlnN4u1yyQllSwkOEi6fbu20q2mZ9O/AtL1OmlgeRyk2jUdjBM8E7x3UHOg+QrDI4PKijVunVOovk5rsXNv+aBgoDvXSeOqCCdfM7L89S4urhLfS2lKwMmUpDXNGil4zUYR8LFLqMgyrbcdvWwqS8u1PoGbjwLdJmmYD4sXnQkNvuR88CxfUSOmaRDbHPRkcRE0FueWFx2dJEXPKEsM/rKJDqyb6dteybGTNxJtThrHf3sUNjO+axwSGaC0H76oarosmRcso8uWX721tgSVbpg5BsiO/CMVDmCNlnnpCKojIhi8MbHb9icj60Xp3lEGZAQEDlzAur65Z9+dYyKPMs3SMLyxgvddZNF6l8jDIX0HQRw2fw6qTdvnOTaN9VG6bUUfeU7rFKBnOBtSI3MWTbswO2srhm+5xHDcfLIGzDPF7/DJGOPKkvV3t+3Jz8Wcq83r4bv0vrbekSfR6C5zf8iy9orgKTHJZ1YZUcWAuGQ3H+ljDUC4gW8rAU/dGf/nFQmlYJzX7qOfPDY2wUndrLzfYJCO22WJv9LBWyG6v7lthesvj8huUSs7Z3qJjyq3TrIoQZ6WyzkNDuVaLYRpQDAAAq/ElEQVSZLne4QCe3F6+/s8WhGFb6bcBxky2Qfus3odC4OsE5Dv1qoCV9T41m6gX3iiF3lZ/VGNrWUXKJNTZZ8aMIRlhbvN8icQhSqnTOq/RDh4nYYyHtnlmwxOichVn0z+soEGrPPXlqeR4F0jz1hruPHTOiQ2OXe+huOxnIdbb/y5/bJsyUqb/9FeRM203xXajVc+yfQIovYBjcppztwbYlPr9vkbGzVegBqh+FmZ1bsPyvf2f5x8gQz1zKvJGuf+WRyraRXrtDCuvhJw+sFyNeylxpDN1flYzlfD8ti39+3+ZSm/b3/8+vbWaJ3ukMx8sgKqS5ZNbmsLPl+Q9QPdNJKqQNkGpAxsV2T+M+ctfBaTx7hV5Bys6yLgDoycD5W0BpNYNSrbDJ4C2HCn9HaEmd2QZAwYrOtbzO/Mw8c/Ud32Bxe80C/GquKjo1yHlzs42RgwrhhKtT2lVqyPtn5ouHLie86IiLwxmCklBeSOofwUPFLx++cLnDJLl5McdtUU64s74e9EKu5QGXb6fRvwsi7dDc9GiAwMMdt+IO8gKUG4/gNcWj8WDRUVOcyzRc74NQ94Cl4+00HKmMgSg/ZoeJGOA6v8I1Je9tB4KhFXLK3YSlEyzS52EUsSJL81zzr6wgRkeiZ/VGOTNiP2tED1z1UhKK1ihyUtruNEweOALASzn0Xe6RfTz0GF6pEWqW8SN51Roh8ssRHqGdrOX2CpbR6xyNTmh8I6UWYvunkVt3WIMC7JeUR1iWOvMMEbzsi9eWBwBXePn6IMzeoGdezoh59e5Nu3n3Dp35rgYYHN3zUuZBeok1pnzouKPINYIs8/Nbtk9ZX4pI0D6RQzW4yZKbX6HDZZrzMTLaH6TvtLZqu5e1v/zHUiqX2k/wb5cbDXV2Wa5/0PK9oEubQKlWE5lDxTpU+FWQnCOgYEUaU9rH/Kw88x9zYFjaKOhqw3lgXSj1CRGisCCp/rmwViVHiLIM+iBDxhIYRtU2fPh+KMkNuQnieG7bNgmlbW5skvfqrWil19lU7Y+JGjTDhOaOu9jHna0ryK5H7SW59jTO66eu+qPQIAai/DhcxGWTRXbu669hDszZ/a++ssSV86HQi1iRmecWWZwN0kuNXJ+uq6BjRpyEnMo1+KiExo4Thh+haUvoxk3b+qNV24Ee1n5PEycAoM0wUwZe78wby27Qf+IZVNU3JgMPVUqttLtj+Xlo1d8Oa5ClCVWByEuekrrc21eWfz+P0QaQkJKzRuRX7pk7RkzHu9HT149hBMsmcqvlSbvumVN4FbmuEbtO2mRxadGSzEOpwP39PdtfXrFuUmMD0FFfgfTqODn5VsnxJLfjFXoF6QahVJRVXh6ovAl56OS/jjtUqyr6zjwhn7Erk3QWu2Z9QR0zPOwoxrPyzN1x5Q+ZnbLPnqPoqqNTnQfWUQrygswkixcuIIpy7JWGfteIR5Lg58OZsO2g1Je5SWOQnghs1HKmMeX/APYF3fZ4XW+4405g+WdQUlk8rTx5Onnql3G46o8IIePw1BSMf+tm72epc6+SMykTgou4RKka2XrxyjJc45mhcfjOqds/wxywQ2NnF2Yt8+oxCPSnFm4i5/sM7/QNqP09vGMxI05PTweKR46AvHOHbXDiiLKWRFlHekfGrP/hJ8HbuXQOmaCcoYnu4hqU8SN51RwyQKGRFQo/D/g9t75EXp1rUJ7y+AZh5QHD9STJDl4FLxTEJrgV/S2Ts4lB5ECVPlA9oqA514eGeE7eLoo7d6jQFdEoYGAEVQE1Nl9EmxN5E8PiEzzqX7FevOE3UublGKKOQ2ZBKXOlscrl6XblIkgDV9os0tVrfaypvTPvguoYfUf8BzFIkzSUDlH/c20zSH/ViYoEP7qA/3mFfgYnTVb8JErKcRRLmeuCOyvPvCiCfVrJ6gbVg9fNDocqrcZh3sHC1ohH4jy7eZTls2fPbANglgAyInE5DyPDYreuhY2HmMEu+whRRhT7w89JRJIw+c+QLrEYNzMcWjv8Ysaind8GzMpnmQMuRqKefG+R548tRB8H5anrDedZShnpte7XUmbEer+XMpmavgnjX6etoHyXh76xt/R86CC19wmfDTeBU9C+XG499MOspds6LNsFeJRooprCiOGP+iwriK2uC4ekiRECxBoiMmZ0jwsiWCrjI0JZwPOVly6DyPZIU6EwG1kn3LrgGBYf8TvJr49S10oYIoXEg2Y+SiXIMKkz9B1F8Ar8y2AwSM4aIk5yDIiqRpFDEOTjMXDktF3G4RX6GZxVXYBCbqtHtJR7m+uYRr7oLEbRYyG/lydkVc3iduhe5RAVdlQKoXTU4zDv4ftX4XcfRrHX8kicZ7eLh7D36rVl+vss/eWXpbs61msxguXIQ2ZUd8zCVGCRCjXgobudRolAdItVEDYvvda/sxzEfAhmw31tlP3wutVLVZi+5vFbUyzgu5Yl16x0TLCQy3trYDi0dgi0duj7Hyyt60YtNaevgKDvsTCcBREQy6rfPonhcuViPjTIkvJgRNK/e2Q5VXFgvIaksGoMh8Z2Od+XXCsJ8B1X8c6v0TRJbTgDRSHgYw1FEUOp9PHQs3A5ytYvrazaPl70GtsMcR3GUJYxDNlGIlkutw5hPOceBaZI4gcKHTDjsRQ60QA15zlU6PVQ606EziOXYa+SNClvlbg+Siftd7DALYMf6u+fsFtwfnz6xWd2h5rz0l4VMpSER2k0IifAnB5aUzOHhpabi54F3pNyVwRFYXzHF1D6ndLXbj0MDJeSD1RVcJaRpZKpVH15MndQ1d35D0olIC72WijO0u+e5Ouix/JN7dx5Ed2Lhf0Y4MsyirF0BDcyN081DvM+GLWmAR3dBkjWiEcSIbSZ2Ny02PBIS1HSUuZJSqnS5AEVQizsAjDihm9UEfZSfiZ0f4bUSRdscFpMz1Kl50Oo89A+D0KMvG4ywFp6Ciu+drn04zIpFnPAdNbLAJILTU9Z5LP7FsNYaAMwF+0+meWomCsnxB35/ZsA8BlaXjrwOhuIRDnP3HVBzA71280vPrWHKKNR+Bc6UT7tKAqVJpaC4SoKkzcVkROtaexnnwZKa+35c1smErXydsa6CWf3wynQSCTro+2r5jvwpEmXUZ1jcxgO4pJvMuReKAm5N4N9cfNxHrnIYlRf/oL0lPgq1mNhy/R02t3pqYBh8c7dOzYxKQxRL2F1qG2PGal0vy9vNKSGOfuHYEd57wrj1/L83XoorEDpiI4NnYvqgtI5lb8+mTuofC/+70ACKqPYxTPZxbsVD7QreaqG4jxpsbk60gygs8wPz2F2qpw7d575C26K31Fy9wjil7fxqO0TChfIROEsN5QFrMZhHkahZ1GemT3Q9ArbaeGoMWJ83kverkDXqa3FpYBCtHx/+nkRfUsdqkqQit3yhFzXIoeyLh1ZOlllFpZA576hxIabVih3vKJGRw8L5AOiKblCyPpB44cfP4GzGzYvFopg4C0EuUxXd67cKAtWWGUyDeSOix4lBk14GwpSIgHBqHY8O5uWX3hjNr/QEEq7AyNkirmqQ9vY5q51zy3hKb+xjCiPmafLvQa8DIeecymTYiaTsp08vboLtMTcha+fOvhGPErlY4McMJ5yTiVGnNc87ICgHi1Cd76CqE0JRwcdCjngghRRAzlgRShk1Oh6CicxzCQv9uVyv5nNNWrhOT7Odx6FHplfOWjnW6fevNwz/0H3LcpctKT3fgbxCQqpn+hRG7LsYt4OGMfUaw5R+OoRGVduvd3ihIvfQii0q2MlWpdHNuqy1kmEStGq4IHnLwxHzaHrPCe/n/ug5hfrf9jM76t55FLkjwjfi/0tS9qmg7Kxa+TMb1OK+sWXXwRodqHNtX5IGTeKIXJc8XoOxuH9pd4DP65EfAKeAY8JzIYYK5Ed170iKdVy8s4zz9IQp9w71370nj7TaOQ+Dr54yv95hX6KAnecwsv5NOCxfBAmUmMPXWRnUQ/p6khVeiK0arXcufPMpcx/tbNta4RgtahdvX0zoD1V/r906FgqcZhH8d7bWfzVRKTjH3+LB4ECqjG0kKkL2xYApHfPX1gSfoA7d+4EeIPSnxXRtwDoVE8cKGl9QeUzqk5gYSkdByF3FCXGQkTtcjO8xtBqdLgcfwFQXOevvrbYY0g/UIQ5KXINcnUKfQZgSv4M4b0pp6lWvY3kjp1HmX0HIPD5okXWDgGKVY4nj4EV9JuGFKWRXPAwc/0zAF1pAFRts8vWlXls4XeLtkf5VWnuNYJHUuo5axHT/Hc7C7ZklBUW4I5/nbLu/eY8Ssk6kuHcLNNM5usdQGmPLUm0IzwwZKGrU2bkgINBaLaRkLHSDYpQGMojsbhvkVXy/CWh4jw570A+ao+8wQMjr5HzXc0zlzL/2SefELAYt04Usrw9dUPrwrit5fkdHNSP/+u7yv2GCleDN9e4j3auz9sqxvXbr7+xODlsXf/DPI7ksf+4qxN9Vc0jFwBO6bk+ohiff/WHQYh9bHwswMOIflXKPAiDN+mZO6543R8a7v6SMVQ6AkKkq+MWHhmwBNduRNcYa1O14TxzKe7o1CS/+ZDQKkeqKftmLgAFNnIfV9vPSb7vFfpJSrds2/LK5aHDwWJxLi6Ff1zdatlXT+VPXbjylLJVcufO8nZdkL7DM1vCY2unBOQGHNWfEjKspGDd5JVPrJRTbKNxS2IWrxCPsFYuNsils5ilUeivXjy3dZSQOrmVGxAFef543QEjmRT64Y3+o0I/tOTdxEqe6/g8Jd/88WUwLwGYCOXZzBwfcJPzf9EkOMxlOoWe4xjUmjcH+KnQSWgRb7IfTul2Kf4KQx56ameDKMKsFZ48t+gcACWNokL/+HiqL1MHPy39v5NFrZOa3QIGkxYpoxe9QtAZcpcHCv0g95qZugJOIhcgkRVFiuGJiswkZlPUUQutTaex0Aypi5XmPErVCfOwXbzo3e3Am1QMIgBzLWGA9RyCHyEiakyh04OcdIMUengR1HeZQpfcGpGPu95dv3uHxlbOvNQzf/DgfqDMBwFpyrNUa0/1665GLFQq+9LXLveLm28F8u8x1VVjtGa4XrY4ll22qzOfJrW1glHaRo69jUgSPY+a89xLd3qM104+itjpsUtEQFga9XQQvaoY2UTfOk8N+DYGbJ61YoTrZnp6yj79g88Dz1z3bicodtEhK0Ipo0byC/LmODaNDHXEUzQxgyGtUU2hw05jITAKoRtXLXLrGlERFHv4MIpWsiOtg1Lm1Tzz0tx5gPA/x566V+glJ/a0Xsp71YWtR2m4+rT2X9zPFqj2Jy/NnrwyVpDi2+6Fs7xdF6TX3KjdtEO99ckD++zzz+3WLXq145VUG1LmwgmEypjPotzs4WvTdGFjQZ8h7E0pTqXh6r61mL3FQ2+D7enLCuA4EcTkAN3kd1AOa4TQl8kfavB+I3WxB19u4f+HuUxX6khQ2VQ8s7K9bMvhpPUkt+3Ln/2sqkIvzkRh4w0U3AkdT9FTho5XDH6Fbc5DSe51f+aqrWPExQAylXLqd/YN2fTnf2JdA9fs3eD3tvzNo5Z4lC7HbrH5AxGw4DeSAxYQUNgBhdxDhNwLhNyPk/stR2MLAKecebln7nK2UkZ6fdThPHV5rDLyukGs9w8O06BoyXYhVnpFXwNd/znSThOkrMY51LPw3N16sEwqYJHHa1JVwtK85zqVghe9qhjZOmDAnIQcZvzqpE1NTNr42KgNDA4Uq3hcb4MOlL0iG4Ex1Iz83P11eF/IMA2uW5fiOjwRBTz2HFiN7Pw0EdGMxcOFYM1VRLR0lHvm+kyeeGrjafA1lzt3ESop/vPqqXuFXnpmT+m1LHNdVHro9WmPIsqbNpF5wnuFlyh0IYDLhm5S3byzKMtZFva97n67R83tvfv37Do19CMjI8FCVu0YBBCSFV4OFIqNUI9+n7AraGeRZFRD1bu6b3kmWsz28Ia3VlZsh/yi6BuVhwyGkOZ4BgXmGDB9qV3rWY5iLvNgEkHfcaIMi4SZnyZCNoDneRc52uhoxVkS1wDYFsMe4RW/s5M6HucpCz6A7aCh3KnzxJb3d+x5O0oGIhSFhh2nfgyF0zd2DTex23bh799nId2mWmC7k7pkjj3J+RIbWg+KNcj/suA2k2MPJtLEf4qylN5FjeZ/dX0rnaRcuSo25GmWorGXOE99fWN2/cZ0AIBTzlxhdueZN5rzrXcozlOX8atHOx5sD0DQdZT5+/fvKdvssSx56H2qAbbokR5B1ntEpVaZ7wBlk+2qGpAMEIQIVaJluXb9rfNQ/r6blyKHkoWeNQ7+Fp/EwTeE/VGKULKSJ662rsSaoFQN2Qu88G3oVIUf6CVEPUQHwhFC7BOg/69cuWJTk5NBNErGvY5TxkucnLYAhPqN0hTNRjYCTIzSaCX3RaVzDtTV1sHKrO9t2RoFAD2hrH366afBuntwZAf/H+TGDwBwLswuZS5vXEr84PPlg04JCt3joR8o+22L8/o8Da/Qz9PZOKW5OJR3BqrG/HNC1PKSK6B9dZPLEl9EoSd53cPNd//eveDRTdci56EoHFtpuJB7edg9BBNUBK8nFwPOJMYrRa1rDIUZ5ZmkQKRvoNQXJq8EoXc1W7hIY5/qgIV3by01Nmx6XW2oY1qsgExb3D2t2v7K33ee2IuVZfv1b39jvawSamU5yeJcOpQympq+aT0AwuRRLrx9Z+8XFmzpzTt79/SF9ZLTPwtPsnSOtV47bMhb0Njqaa5WwKVo7DsYrV98/oXdvH07QLMLAKecubvuj+uZl89N+V0Z+Yrg6dpWt8I2aIW7ke84hoS89SytiDffL9mbmVmakrynhh6Q1vbBteQ4zAV6LB1idNR56KziPCh0rvt8R4YoQ01NJA+RYGkoTaiucltQN2tNCLXFrb2/1xI8JgGD9mOYXr2CgT86AvyhJ5i7upnJA5e8dP8fGCrtQX25jPHA2D9U8MFOTuC/LQz8p/ub9iKzbTPpdZtM7wZ16XJEGhnOI9fxlnrkjfz2rL7jFfpZSf4U9+vQ7MrN5tJwMBMySj19DRjpOQsC4c0qdbhS4kt4Wxt4jJ0sZsOUmFy9KmU69kH9vBb2poYiXtz4meVRC+H5BbnmCmh0t02p7RtkQTcpgdl6/dzm4WXu6yHv5hQ6C0OIRSJEHaoB7Eou0UsdZr8Uhsh5GAIGqevTfLpgy7jCUdjBpNBVTqNFXMCg0hFmEU90kcceHrMkXac2IPRYIpqycxhFCTwuoh8kM0p/1rLX4hNYQbm9JFX/kiZCE+8nAz798h24uuo44dIYYecwodW9128sw2KeZW7bdFqTx76DJ7nE9uJ47GGOOYpHKU9SfdOb8uDLJ1DnbxdpkBLSQ9ezPHEZLPI41S1NDVbmNMeoPM2OoBWwAFRCY9+8dQuF/jme5lW8SfgiwBBImbfKMy+fvq4DPRwKW0pQLX26uc4ncpME0bZtnQjV/Py8bfQQHYFIJsN1ksVrD2qt8ZojobxtS/HiubvyLTE6bsojZodZzoW+Wzqgi7FFECBJwhw6lyRgAoW+RxWHOv+lOFdrnNEM16qMjU7m00ePdoXRlTZUHb4Uul5LTnFSB1LiziNXt7Sgoge2PN2zjdaXl87xKK/Tuo6Tezaf4QHkpQ3WuJQiXpd4eIV+iU+uOzSHZhfQKrU6b9nnbyz066cW+oESHlDe1dSC457fT7TbFRpBXIcAQjexPPIueO6PnTIQTaXQ4HoIjR6U3LhZ//jsUOULVAe8fP6NzfeFbZowqMGDrxFKgJZVh7yreJA379AHZt+ebD2yJWrYz8PYQmGo69MCGIStRNhG+HufkhtRU0qG5QpdJCtCl6dZaMV//h1d//7f+Tl7tXAQyuikjn84wsLK80kMKcI0Cm+zLRbMd6LOTpzHGiEFosV7E68thzLcgk5VHvtLjMbVmRlLoZDi63sBKc9wLGIjLPwn6cG7SIPL+co4lee5hFKTx7kGNkAAuAhKZmgCxQRz2RDh4lG8YYfG7uNYdL1LObnjbLVnXk28Ck8rx9zB/PKcj57d7sBjb+N+VERk7979gBgpi/LOYDCmKStN0ZZ5mzLAPZSXiwLJ45aBps93+VzfLR1ZIkJJ8s1xwJwBrofj7cTw6VR4HGM9zt8uaqDPpZT1t/A/ejgGNnHWS06VPPJSBV+679N4LSNF89ZD57DR4XLryqEL9R4lsiavPff+/BoFXqE3enZb8D15VlqE1aGLy74FW/xwE8V67MNuSCqrKpBryvLIpCAe2V6HSAU2uNczFnmGMl8gb0TJVrURoLlRulmsbjE5TdBxawQgXQec3nGs9qAdKgvNkQeLRejmDUqJYKP6gUVGKO4KI5hHOG5JFqUMocYNjIqdtbViFzYxjEXJ4+Uh68ig6Pdpgbm0tWzvCqhEvONCmUdSYRcn+lYQwmzL2R6LYNtgz8ECzSKbJv+mBcZ5ZG4SB8cTpaZ2jEx6wWJ4kjE8szDHKA+D3jWWQqGH8aAyRDbkieVZgCvlEd02j/IcJn8+NICyQ96Gkk9yHUnJaNEuHfrbGSbq/T5INCeH3JdB9ctjXyMHnCMfnQTZn6EEr0CIW55kjmtH+WtQFNYX4jhRsKLVDcmDP0IEwuV6XS7YMRe6nO+6PE34E2So7MS7TH3MEzzULe3q9DV6cF8J6JhHCR1r8T8uGrtURkd5rehNgmoEN2QshTjn4jofHsNjJqetc5/BUNG52SXasAlpTxuh+bAU+iGZSgajJalcL81KMiDEA452t1GeYR4IvHedQx23njUihwpdf3cB1usj5Vb6ubAepWh1efMaDjsj0qzT9MiDnZf8p+tA954iDjJKdK9lWUNSyELXca0StpLNXKiXXqGf4unSIiXPSotxG69bPYr12IA5gm5I1HlnBXzD+w2lAL0RPo1Bv2iErhupx3X1yvsxKA/3C9Qsr1lf5pnF8erz9yYpr2EJxVonznakQ2m273y1Lmy6UeUp5Mnp7d+g1CqXtFyYkrw52n6yyOXKPJIjTfYYP1IqUh5PByHbGKmGMUK4WpyzLMS1jA3lGlWmpzCmIhLLeLyrLNRpQFG6foTslzemhTtFKDvHPlo5wnjRsY6EjeK5Km1Tr+udFkmB57SI6/sdgLh0nKMozB089qTKjSjHynBOAk+SfPDLhfdBi9ws0Yo9qGXFkR+BKe0oEQiX69WzRhByx5hzOd84Yeoo+egxCGzkifejvHrAgqj1qZu3vHFdT3ocG43dypPBtso9dilynXs99JkeApj1YjiJw1zhdQ2dixxykPLP8V55yD34Ev/JMNN95Ay2IAWAsay/1WAmxmvJxY1y+cTZt4a88bP0yN38XIRRURndf7rftinT3MaBUOSj1Fhyvyl99jn0Umn41x9JQDlPeeg4J0H4SyFXl+f66MtHeEN9ikVXmHn+Go+XMpe3M4SHDrjZReQRghnrQ9+q9k5+rFeGNCUFDHplnb7MLMj79B4GZJLCo84XCP0S+VYeXTnVZkazfeddF7ZdyEHWXj63thHqgG/fD0J+waJDLXB0fNi6woDo2sk+XhmzbTz5NN7LeRjO4xkFwZyQAcICq8W22hCKX8pRDyGGtwGZLRDC1rNGmrKhbfAPe4Tv0yeg0CN4tHE82G7y4/K85dmou1y1oXPglIG+E7Ch8TvnsaeY7x7GpOa/gScZXV6BzKbP9jFSpOyTGIoCPoapi5fRq/skhTHW6D0iBkaRNhGXCqIemouUknjBlfMNepZzLPIy1RhpaOhAocsDDfpjK2et3O9hfbSMkWOhsasJ6ojvl3vswmDoGDVPKVodpyIjCs9rBHl1XWNlhp6uORmS1a69QCEjNz1rqOzUyTJ44/A/XRNnIR/V7BfCUR6KWGC8VYkSKuWi9Moazz1EGJQa0HFLbqWGtOrMFVYPeDnEy8CIEFoPtQ1ZjFC7Rnn9+cHnEEYdGjHBl87Bf95DP4OToEVKnpYerhtQS6bBwi7PXMo8/+yp2eJ7qDBRZoSZGmHGqjaH8nrlzO66bc29s13YxUA8Wd+naZsC7azGE80MLbbyCBrtO+9y6YsA+958+/eEsFOwTg2xWA8Fu3UejAhQ+ocHbX1jgxLuRdtVmPEcDOfxdJCrFPr3uEP810FTi87ug5B7DePgKPvSgh5mMU+QdtFDxmAziSKdD+f5SnkkuT43YT+LsRgnWFxVBjdBvjpQ2iy8aqyh7nUhQhqKQCjnq3tkj+dGRlBuxeIeITcvz/sAoKVmKChm0h2aj/L8MqbkievaC947VPzlHmfilNDYjRxbpe9IwcsYkTKX8pYiD5T14XXgOMwl19IhQzKLga7nSkOh86hwKTxrSEaS10epIV0fnKfAqOA7pzUKOEW5GJSuPAJHpapCB60PVmKDw+gCYzNEx0bhEaIC7bH2uOE8cVdfrvdLc+b6W8xwtT7Xd87D8Ar9FM8CZZuUjlBPygWYYpGSh+7CYq2YhnLmecLs8sylzFk9m1qAq86B+QbMXjL8WRvSKPE15v8e1PU2i8kIN/8gXqd6uzc15D2QTy3I+xdATgxrNfrOu1y68mBvOcYUjHPpW+/I8aPQafoga1kLdxB2JKQ2AKBJeT+XS2xqbif4ZefZKETpFs1GdqeFUwvraQ83XynhZuerObshTxKtEyjSbuV/Dxdi50nK+5fndKCcYFUkBN+LQm/2/ElRS6E7z9vNweV8ZVhpQZdC1Gf6W8Md55Hro92BntJzYCAy93JF63bvPHg9l45AocfrKHSUnjvX2r5kWW0/pds+jdcFUlCZK5O2DjfF+uKs7W6CDcAQzJVFj55QirtAr4AMPAqdXA9qv9zFmqH7zl0Tmq/WDTEgajhPXK8Dj70CAO7Aox/mNweOhL57XoZX6Kd4JlSqI3RvCLSzXrd6BAA4QuwKs8szb/0eDmbs6tOfETKd++6RXQWs9eDhZ5S0NXdExXp4Op/pdaOjDfzcWKpg4TebFv7H720/Q+jrwc3gBivNAcpzUXi10ZBto/s/7vcCz/cIns1ZHc9R51suJ3l6pahtF/J1nmSKa1aeY+CpA5A76vFK0ZV63m4ezgPXZ/JAZaCUep6tOk63v7N+dh68C8G7+SgE31DI/XCNkheubZ2XkRNW5g8f2ptw2v7hP6/bi6XZAHuRxKEpHeIZmAFEeoVUigwScWcofaXXlY6n3FN3THFumwqzl3vu7rPz8uwVeoUz4bpdZTZXoRMlpyL0Nfm54w6h3EX6QICMvO4BmOUklI0U7g7oZ3Gga5QzPx33OFS/+4jowpssZVggyvvx1CtFGrRgy9tSV6QCyHhguHj4aOPDUF+x69m7WfLzEGQ0KOcESN+RDAvMGs1VIDDJKHJAXj/o2EVJT0RhfHmGoJnD3W0WwaKPtcEfLQ/xAg95FVqMLurQIloJiOQ8STGIZfEchdxPl3jwrTpe54HHiAYp7CpP7Tx5nq06Trcd58G7vy/Lc4jmULFbU5YALxGHRjlMmWcWpyAJg2TpiGG4XGetmQJQOjQ0XLd3RrmnTriwdHOBJ6/StfPombuJeoXuJFHy7LpdpWeeW4SQTlg10lJELRoifVCdqMKJ6RYisEN4HFHIPXbJH3+/Mleswy5nfjruYah+9wWI+SzNUsQUJS9Y3lT5kDLX8WVJA+R//TsLKGZLup+5rmckSQ+oZ4N8f305O453nZPY3FvLb8GULsY5ynnSCYXeodSlTCo/RkvT2/TZphype5wFABIOP86fBJwnqWsoCLnLECQc7zz4Vs3YeeDy1BVyD8Lt58jzbNVxXvbtuMiNaFyFQVr6k6UALCpK6NKhSM8+FSEC7F6fugamAuMewGO94Tz1clpXKXx9dp7HpVTojqtcORAQNxYC+VlpqKmHAGO4kQcfB39D0nDYPzn37LmFKRWqVh9daZu13gtC7ngGKmNK0Qu6B4rM0HdPLHOIrKz12w8+U76Z8psw4SNdYLrQNMIqE8JyVZnaytaSvcuTU+fYd8mhqXQjCe+UAEECBh1nCE0cwjruATk8MTVlI+TPKSP+qL5T5+HAC6d07gkUs4+eHLYzbQzkVG2OjuM9iJqoTSYPmyfnBepVQBliqZZHoWdG+yiJGqbBCYQ6ePSd45BlHAGNX20e/v3WSMB5kuclR9uao/JbOSkJuEiVoiuicb1Krm+R8kdVT+QxBvVPI8O6JwInDQEklWqRUVdvlHrq9b573j4/3sp+3o7mcD4uNyuAQ2iRBoS7VRQIZTRB32RCyMFQyBdlWOyfzAXSSH/pRsXgUNo3CZ3mNnet/bsfrH1+xXabDKMGbSavTln0zq0AfekAHc6yTHSowxm12CO9B3XYGDWqw+wHUFVKDNHovMu/59DEbZTJDHNDjY+OUROd/ai+U2C3PKH2PNzThaXFA2XewkhH+bxOCo1fvh//t5eAl8D5kYBy/Cqfi0dipGqgtz5E+UvxS5Fr6PVPYVxKha6cbZa8bFYUpzQwMNjNKo4qCl0e+UlAQBxKO5iL2NySMLUtUTdecXLV38zRfjSzQB9zEXXEKfHJTBcVtZR7J60kJ1JQPA4N2C7tN4WoV/hSAKBWKHQ3M6GWZSX3wCmtMKZyoaX1nQVuruw+fYahnA1D+xmSwXSS46TQ+Cc5Z79tLwEvgWNJ4EBxH2BLamEvtP5ddsV+KRU6XSzMXry2wnePKd/CMzxsavHRVUPoOOibXBZy/+h75+wNsWyt0qRkkXrw2e1F6135mX311VdFwFQ/TFHqt32DUNT6ymrA3yzQmkKbpSjw4x6WtqcbRHXVCSzh8vrOPIZFJgQRTQiGOl6fto3cKjT+ceXkf+8l4CVwchKoVj1RvketVZWwPuXfu8h/X0qFLsa0QkB/SmJ1HS+YjjuXaeQIW+/tbNsiXviT7K4Nki8WQMSNdpXj8OinTGOVJirieBaaXiA1jWrMT+73zT47T/2j+k5y9VHy+mlFCmg2srO+bctwku9VS4E0u+M6319GTk+oZZ7JRmui8etsxn/sJeAlcI4lUK164hxP+cSmdjkVOsorR/9sPSK8rg+DODH5nuiGhZYXkxb/VWwLKA86QQekoO60BCwii7a0/va4k3SeetDusQQ1rFIxocuzANLeQ0bzLQDEv1uYs3c8TmPIQ1c3rTgsUbXQ+KcxF78PLwEvAS+Bk5bApVToKkkJUQKTBg2+s5Mr1mOXC7PV9dnl2z+pv12/6gUS/evhnCUo1xBHdnkXoSDEJBakMkDIaTE/qe5bpWJtoMvjD6gZpTlCnHmG6calrmEnUYNfLnMVmajl6w0AhCpxUS1yuZzKf+P/9hLwEvASuIgSuJwKvUo9dvkJanV9dvn2T+rv8n7Vg3i+6iBU3kXI1feWM0WdNvOTSsXE9d7fP2gPPv3MVgi7K7LgSkpOSk5uu8INiCFqgC5bBeghy+XkvuefvQS8BLwELrIELqVCr1aPXYrA1klzCn0P5jHxFqs7VBTvXiHkizBcv+phPFDVgau/dmnDBR3HeTgWdWFT4xZxvV+fnv6oa9hpyTpOqkF1+H54CXgJeAlcRglcToUO2Yq643xUj13Gyub6VHey0MfxIlWC1Y13Hz8m8cppXSiuX/XI2Jj10rnKj9oScGjYLhq26LUfXgJeAl4Cl0kCl1KhO6afavXY5SfQ9amWQu9CoScuiEJ3/ap76PHccUigUH5s5/Fv5fQFyjvtoX22Q4ajbmx+eAl4CXgJXDYJhCAcOeDJu2xHxvHsww2+vrlp6+vrH9Rju/Itd8hBaBolLkUT5SGSlIswAm5qOiK1Af7rggq2t7cv6AMupXWeh8BwpwWKK5VDABIELFkOEiz9jn/tJeAl4CVwUSVwKT10dzJcPbZ6YndBfrJN7bYI+8sVuvv+RX2OhtXT+bRpW44uLSlURUP88BLwEvAS8BJonQQutYfeOjH5LXkJeAl4CXgJeAmcbwlcDDj3+Zahn52XgJeAl4CXgJfAmUvAK/QzPwV+Al4CXgJeAl4CXgLHl4BX6MeXod+Cl4CXgJeAl4CXwJlLwCv0Mz8FfgJeAl4CXgJeAl4Cx5eAV+jHl6HfgpeAl4CXgJeAl8CZS8Ar9DM/BX4CXgJeAl4CXgJeAseXgFfox5eh34KXgJeAl4CXgJfAmUvAK/QzPwV+Al4CXgJeAl4CXgLHl4BX6MeXod+Cl4CXgJeAl4CXwJlLwCv0Mz8FfgJeAl4CXgJeAl4Cx5eAV+jHl6HfgpeAl4CXgJeAl8CZS8Ar9DM/BX4CXgJeAl4CXgJeAseXgFfox5eh34KXgJeAl4CXgJfAmUvAK/QzPwV+Al4CXgJeAl4CXgLHl4BX6MeXod+Cl4CXgJeAl4CXwJlLwCv0Mz8FfgJeAl4CXgJeAl4Cx5eAV+jHl6HfgpeAl4CXgJeAl8CZS8Ar9DM/BX4CXgJeAl4CXgJeAseXgFfox5eh34KXgJeAl4CXgJfAmUvAK/QzPwV+Al4CXgJeAl4CXgLHl4BX6MeXod+Cl4CXgJeAl4CXwJlLwCv0Mz8FfgJeAl4CXgJeAl4Cx5eAV+jHl6HfgpeAl4CXgJeAl8CZS8Ar9DM/BX4CXgJeAl4CXgJeAseXgFfox5eh34KXgJeAl4CXgJfAmUvAK/QzPwV+Al4CXgJeAl4CXgLHl4BX6MeXod+Cl4CXgJeAl4CXwJlLwCv0Mz8FfgJeAl4CXgJeAl4Cx5eAV+jHl6HfgpeAl4CXgJeAl8CZS+D/B5n+BZ5eBPa6AAAAAElFTkSuQmCC;" vertex="1" parent="1">
          <mxGeometry x="353" y="101.72999999999999" width="145" height="36.54" as="geometry" />
        </mxCell>
        <mxCell id="2snniVbpcHpEVfgWELba-15" value="" style="rounded=0;whiteSpace=wrap;html=1;" vertex="1" parent="1">
          <mxGeometry x="150" y="150" width="560" height="20" as="geometry" />
        </mxCell>
        <mxCell id="2snniVbpcHpEVfgWELba-16" value="" style="rounded=0;whiteSpace=wrap;html=1;" vertex="1" parent="1">
          <mxGeometry x="150" y="180" width="430" height="330" as="geometry" />
        </mxCell>
        <mxCell id="2snniVbpcHpEVfgWELba-17" value="" style="rounded=0;whiteSpace=wrap;html=1;" vertex="1" parent="1">
          <mxGeometry x="590" y="180" width="120" height="330" as="geometry" />
        </mxCell>
      </root>
    </mxGraphModel>
  </diagram>
</mxfile>
